<svg width="1200" height="420" viewBox="0 0 1200 420" fill="none" xmlns="http://www.w3.org/2000/svg">
  <rect width="1200" height="420" rx="48" fill="#F7F4EA"/>
  <path d="M126 248C126 173.441 186.441 113 261 113H435C435 187.559 374.559 248 300 248H126Z" fill="#1F5D45"/>
  <path d="M182 301C182 235.83 234.83 183 300 183H435C435 248.17 382.17 301 317 301H182Z" fill="#82A95F"/>
  <path d="M172 92C210.656 93.7732 237.227 120.344 239 159C200.344 157.227 173.773 130.656 172 92Z" fill="#D9B078"/>
  <circle cx="389" cy="160" r="18" fill="#F7F4EA"/>
  <path d="M528 131H592L595.98 159.88C601.22 197.72 613.46 237.22 631.1 270C648.98 237.7 661.28 198.16 666.7 159.88L670.8 131H731.64L696.94 289H624.56L590.62 178.2L556.68 289H484.3L449.72 131H511.3L515.4 159.88C520.82 198.16 533.12 237.7 551 270C568.64 237.22 580.88 197.72 586.12 159.88L590.1 131H528Z" fill="#173126"/>
  <path d="M748.779 289V131H868.899V181.4H808.499V192.86H862.419V231.52H808.499V289H748.779Z" fill="#173126"/>
  <path d="M893.759 289V131H953.479V289H893.759Z" fill="#173126"/>
  <path d="M977.98 289V131H1037.7V187.78L1084.98 131H1156.5L1098.56 197.22L1162.36 289H1091.2L1058.06 239.3L1037.7 262.82V289H977.98Z" fill="#173126"/>
  <path d="M528 341H1152" stroke="#D6C9AF" stroke-width="10" stroke-linecap="round"/>
  <path d="M528 341C598.5 319.5 680.5 319.5 751 341C821.5 362.5 903.5 362.5 974 341C1044.5 319.5 1124.5 319.5 1152 341" stroke="#82A95F" stroke-width="10" stroke-linecap="round"/>
  <text x="529" y="111" fill="#647A67" font-family="'IBM Plex Mono', monospace" font-size="28" letter-spacing="6">ECOLOGICAL FORESIGHT ENGINE</text>
</svg>
